# xmcd
# 
# Track frame offsets:
#     150
#     28293
#     45593
#     60768
#     82105
#     100183
#     112515
#     123445
#     135890
#     152828
#     163770
#     178295
#     192928
#     211510
#     228175
# 
# Disc length: 3131
# 
# Revision: 0
# Processed by: cddbd v1.5.2PL0 Copyright (c) Steve Scherf et al.
# Submitted via: BonkEnc v1.0.8
# 
DISCID=b60c390f
DTITLE=Johnny Cash and Willie Nelson - VH1 Storytellers
DYEAR=1998
DGENRE=Country
TTITLE0=(Ghost) Riders In The Sky
TTITLE1=Worried Man
TTITLE2=Family Bible
TTITLE3=Don't Take Your Guns To Town
TTITLE4=Funny How Time Slips Away
TTITLE5=Flesh And Blood
TTITLE6=Crazy
TTITLE7=Unchained
TTITLE8=Night Life
TTITLE9=Drive On
TTITLE10=Me And Paul
TTITLE11=I Still Miss Someone
TTITLE12=Always On My Mind
TTITLE13=Folsom Prison Blues
TTITLE14=On the Road Again
EXTD=CK 69416/American  Recording Company/1998\nProduced by Rick Rubin
EXTT0=
EXTT1=
EXTT2=
EXTT3=
EXTT4=
EXTT5=
EXTT6=
EXTT7=
EXTT8=
EXTT9=
EXTT10=
EXTT11=
EXTT12=
EXTT13=
EXTT14=
PLAYORDER=
